Chrysalis

-----------------------
Link to the original release: 
http://forum.tntvillage.scambioetico.org/tntforum/index.php?showtopic=254879
----------------------

.: INFO :.

Directed by 	Julien Leclercq
Produced by 	Franck Chorot
Written by 	Julien Leclercq
Nicolas Peufaillit
Franck Philippon
Aude Py
Starring 	Albert Dupontel
Music by 	Jean-Jacques Hertz
François Roy
Cinematography 	Thomas Hardmeier
Editing by 	Thierry Hoss
Distributed by 	Gaumont
Release date(s) 	31 October 2007 (France)
Running time 	91 minutes
Country 	France
Language 	French

.: CAST :.

    Albert Dupontel as David Hoffman, a police lieutenant
    Estelle Lefébure
    Marie Guillard
    Marthe Keller as Professor Brügen, who runs a state-of-the-art plastic surgery clinic
    Mélanie Thierry as Manon, a captive patient at the clinic
    Alain Figlarz as Dimitri Nicolov, a smuggler


.: STORYLINE :.

In 2025 in Paris, police lieutenant David Hoffman investigates the circumstances behind the body of a young girl named Manon, who was resurrected after a car crash and now has scars around her eyes. Hoffman finds a link between the murderer and smuggler Dimitri Nicolov, who is blamed by the lieutenant for the death of Hoffman's wife. Hoffman's investigation leads him to a state-of-the-art plastic surgery clinic whose goal is to go beyond skin and flesh to shape memory and identity.

.: SPECIFICS :.

General
Unique ID                        : 241247943032000809177421565021984458829 (0xB57EA9EB91205A9AA81629DF6CE1084D)
Complete name                    : C:\Users\Sol\Desktop\FILM Sottotitolati\Chrysalis 2007.mkv
Format                           : Matroska
File size                        : 4.37 GiB
Duration                         : 1h 33mn
Overall bit rate                 : 6 659 Kbps
Movie name                       : Chrysalis (2007)
Encoded date                     : UTC 2011-06-07 18:18:01
Writing application              : mkvmerge v4.6.0 ('Still Crazy After All These Years') built on Mar 10 2011 02:50:32
Writing library                  : libebml v1.2.0 + libmatroska v1.1.0
Cover                            : Yes / Yes / Yes / Yes / Yes / Yes / Yes

Video
ID                               : 5
Format                           : AVC
Format/Info                      : Advanced Video Codec
Format profile                   : High@L4.0
Format settings, CABAC           : Yes
Format settings, ReFrames        : 10 frames
Muxing mode                      : Header stripping
Codec ID                         : V_MPEG4/ISO/AVC
Duration                         : 1h 33mn
Bit rate                         : 5 150 Kbps
Width                            : 1 280 pixels
Height                           : 544 pixels
Display aspect ratio             : 2.35:1
Frame rate                       : 23.976 fps
Color space                      : YUV
Chroma subsampling               : 4:2:0
Bit depth                        : 8 bits
Scan type                        : Progressive
Bits/(Pixel*Frame)               : 0.308
Stream size                      : 3.29 GiB (75%)
Writing library                  : x264 core 61 r965M 3d2983d
Encoding settings                : cabac=1 / ref=10 / deblock=1:-3:-3 / analyse=0x3:0x133 / me=umh / subme=6 / psy_rd=0.9:0.8 / brdo=1 / mixed_ref=1 / me_range=16 / chroma_me=1 / trellis=2 / 8x8dct=1 / cqm=0 / deadzone=21,11 / chroma_qp_offset=-4 / threads=6 / nr=0 / decimate=1 / mbaff=0 / bframes=5 / b_pyramid=1 / b_adapt=0 / b_bias=0 / direct=1 / wpredb=1 / bime=1 / keyint=250 / keyint_min=25 / scenecut=40(pre) / rc=2pass / bitrate=5150 / ratetol=1.0 / qcomp=1.00 / qpmin=8 / qpmax=51 / qpstep=4 / cplxblur=20.0 / qblur=0.5 / ip_ratio=1.40 / pb_ratio=1.30 / aq=2:0.70
Language                         : English

Audio
ID                               : 6
Format                           : DTS
Format/Info                      : Digital Theater Systems
Muxing mode                      : Header stripping
Codec ID                         : A_DTS
Duration                         : 1h 33mn
Bit rate mode                    : Constant
Bit rate                         : 1 510 Kbps
Channel(s)                       : 6 channels
Channel positions                : Front: L C R, Side: L R, LFE
Sampling rate                    : 48.0 KHz
Bit depth                        : 24 bits
Compression mode                 : Lossy
Stream size                      : 1 015 MiB (23%)
Language                         : French

Text #1
ID                               : 1
Format                           : ASS
Codec ID                         : S_TEXT/ASS
Codec ID/Info                    : Advanced Sub Station Alpha
Compression mode                 : Lossless
Language                         : English

Text #2
ID                               : 2
Format                           : UTF-8
Codec ID                         : S_TEXT/UTF8
Codec ID/Info                    : UTF-8 Plain Text
Language                         : Italian

Text #3
ID                               : 3
Format                           : UTF-8
Codec ID                         : S_TEXT/UTF8
Codec ID/Info                    : UTF-8 Plain Text
Language                         : Portuguese

Text #4
ID                               : 4
Format                           : UTF-8
Codec ID                         : S_TEXT/UTF8
Codec ID/Info                    : UTF-8 Plain Text
Language                         : Spanish